<svg xmlns="http://www.w3.org/2000/svg" width="20" height="20" viewBox="0 0 20 20" fill="none">
              <path
                d="M10.0008 7.49996C8.61967 7.49996 7.50081 8.61921 7.50081 9.99996C7.50081 11.381 8.62008 12.5 10.0008 12.5C11.3819 12.5 12.5008 11.3807 12.5008 9.99996C12.5008 8.61888 11.3816 7.49996 10.0008 7.49996ZM10.0008 5.83329C12.3012 5.83329 14.1675 7.69754 14.1675 9.99996C14.1675 12.3004 12.3032 14.1666 10.0008 14.1666C7.70042 14.1666 5.83415 12.3024 5.83415 9.99996C5.83415 7.69957 7.6984 5.83329 10.0008 5.83329ZM15.4175 5.62425C15.4175 6.19934 14.9502 6.66593 14.3758 6.66593C13.8007 6.66593 13.3342 6.19863 13.3342 5.62425C13.3342 5.04988 13.8014 4.58329 14.3758 4.58329C14.9494 4.58257 15.4175 5.04988 15.4175 5.62425ZM10.0008 3.33329C7.93875 3.33329 7.60265 3.33875 6.64356 3.38146C5.99012 3.41213 5.55211 3.50002 5.14513 3.65802C4.78346 3.79828 4.52257 3.96578 4.2446 4.24375C3.96556 4.52279 3.79836 4.78298 3.65866 5.14482C3.5003 5.55273 3.41244 5.99005 3.38231 6.64258C3.33919 7.56263 3.33415 7.88417 3.33415 9.99996C3.33415 12.062 3.33961 12.3981 3.38231 13.3571C3.413 14.0103 3.501 14.449 3.65861 14.855C3.79925 15.2171 3.96708 15.4786 4.24371 15.7553C4.52386 16.035 4.78482 16.2028 5.14322 16.3411C5.55516 16.5004 5.9929 16.5884 6.64343 16.6185C7.56348 16.6615 7.88502 16.6666 10.0008 16.6666C12.0629 16.6666 12.399 16.6611 13.358 16.6185C14.0097 16.5879 14.4487 16.4996 14.8558 16.3421C15.217 16.2019 15.4793 16.0335 15.7562 15.757C16.0363 15.4765 16.2037 15.2161 16.3422 14.8569C16.5011 14.4465 16.5892 14.0081 16.6193 13.3574C16.6624 12.4373 16.6675 12.1157 16.6675 9.99996C16.6675 7.93789 16.662 7.6018 16.6193 6.64277C16.5887 5.99084 16.5004 5.5512 16.3427 5.14428C16.2028 4.78361 16.0347 4.52192 15.757 4.24375C15.4775 3.96425 15.218 3.7974 14.8559 3.65781C14.4483 3.49958 14.0103 3.41159 13.3582 3.38147C12.4382 3.33833 12.1166 3.33329 10.0008 3.33329ZM10.0008 1.66663C12.2647 1.66663 12.5473 1.67496 13.4362 1.71663C14.323 1.7576 14.9279 1.89788 15.4592 2.10413C16.0084 2.31593 16.4723 2.60204 16.9355 3.06523C17.398 3.52843 17.6842 3.99371 17.8967 4.54163C18.1022 5.07218 18.2425 5.67773 18.2842 6.56454C18.3237 7.45343 18.3342 7.73607 18.3342 9.99996C18.3342 12.2639 18.3258 12.5465 18.2842 13.4354C18.2432 14.3222 18.1022 14.927 17.8967 15.4583C17.6848 16.0076 17.398 16.4715 16.9355 16.9347C16.4723 17.3972 16.0063 17.6833 15.4592 17.8958C14.9279 18.1014 14.323 18.2416 13.4362 18.2833C12.5473 18.3229 12.2647 18.3333 10.0008 18.3333C7.73692 18.3333 7.45428 18.325 6.5654 18.2833C5.67859 18.2423 5.07442 18.1014 4.54248 17.8958C3.99386 17.684 3.52928 17.3972 3.06609 16.9347C2.6029 16.4715 2.31748 16.0055 2.10498 15.4583C1.89873 14.927 1.75915 14.3222 1.71748 13.4354C1.6779 12.5465 1.66748 12.2639 1.66748 9.99996C1.66748 7.73607 1.67581 7.45343 1.71748 6.56454C1.75845 5.67704 1.89873 5.07288 2.10498 4.54163C2.31678 3.99302 2.6029 3.52843 3.06609 3.06523C3.52928 2.60204 3.99456 2.31663 4.54248 2.10413C5.07373 1.89788 5.6779 1.75829 6.5654 1.71663C7.45428 1.67704 7.73692 1.66663 10.0008 1.66663Z"
                fill="#393939"
              />
</svg>