<svg xmlns="http://www.w3.org/2000/svg" width="20" height="20" viewBox="0 0 20 20" fill="none">
              <path
                d="M13.3333 6.8711V12.9166C13.3333 15.9082 10.9082 18.3333 7.91667 18.3333C4.92512 18.3333 2.5 15.9082 2.5 12.9166C2.5 9.92504 4.92512 7.49996 7.91667 7.49996C8.34692 7.49996 8.76542 7.55012 9.16667 7.6449V10.2806C8.78783 10.1006 8.364 9.99996 7.91667 9.99996C6.30583 9.99996 5 11.3058 5 12.9166C5 14.5275 6.30583 15.8333 7.91667 15.8333C9.5275 15.8333 10.8333 14.5275 10.8333 12.9166V1.66663H13.3333C13.3333 3.96781 15.1988 5.83329 17.5 5.83329V8.33329C15.9234 8.33329 14.4747 7.78603 13.3333 6.8711Z"
                fill="#393939"
              />
            </svg>