<svg xmlns="http://www.w3.org/2000/svg" width="20" height="20" viewBox="0 0 20 20" fill="none">
              <path
                d="M10.0001 18.3333C5.39771 18.3333 1.66675 14.6023 1.66675 9.99996C1.66675 5.39758 5.39771 1.66663 10.0001 1.66663C14.6024 1.66663 18.3334 5.39758 18.3334 9.99996C18.3334 14.6023 14.6024 18.3333 10.0001 18.3333ZM8.09176 16.3895C7.28961 14.6882 6.79785 12.8118 6.68951 10.8333H3.38499C3.71508 13.4804 5.59707 15.6455 8.09176 16.3895ZM8.359 10.8333C8.48433 12.8656 9.06491 14.7747 10.0001 16.46C10.9352 14.7747 11.5158 12.8656 11.6412 10.8333H8.359ZM16.6152 10.8333H13.3107C13.2023 12.8118 12.7106 14.6882 11.9084 16.3895C14.4031 15.6455 16.2851 13.4804 16.6152 10.8333ZM3.38499 9.16663H6.68951C6.79785 7.1881 7.28961 5.31168 8.09176 3.61043C5.59707 4.3544 3.71508 6.51954 3.38499 9.16663ZM8.359 9.16663H11.6412C11.5158 7.13431 10.9352 5.22517 10.0001 3.53995C9.06491 5.22517 8.48433 7.13431 8.359 9.16663ZM11.9084 3.61043C12.7106 5.31168 13.2023 7.1881 13.3107 9.16663H16.6152C16.2851 6.51954 14.4031 4.3544 11.9084 3.61043Z"
                fill="#393939"
              />
            </svg>