<svg xmlns="http://www.w3.org/2000/svg" width="20" height="20" viewBox="0 0 20 20" fill="none">
              <path
                d="M18.5104 4.71337C17.8743 4.99479 17.1996 5.17962 16.5088 5.26176C17.2366 4.8261 17.7812 4.14075 18.0411 3.33337C17.3573 3.73967 16.6088 4.02564 15.8282 4.17884C15.1693 3.47588 14.2483 3.07752 13.2848 3.07862C11.3605 3.07862 9.79975 4.63884 9.79975 6.56402C9.79975 6.83715 9.83109 7.10202 9.88967 7.35757C6.99206 7.2117 4.42506 5.82504 2.70565 3.71617C2.39608 4.24806 2.23338 4.85265 2.2342 5.46806C2.2342 6.67716 2.84967 7.74437 3.78458 8.36917C3.23115 8.35167 2.6899 8.2022 2.20599 7.93311C2.20545 7.94775 2.20545 7.96239 2.20545 7.97623C2.20545 9.66533 3.40683 11.0743 5.00166 11.3942C4.70234 11.4752 4.3936 11.5162 4.08352 11.5159C3.85831 11.5159 3.63976 11.4952 3.42733 11.4544C3.8711 12.8387 5.15739 13.8466 6.683 13.8742C5.44845 14.8432 3.92391 15.3688 2.35453 15.3666C2.07677 15.3668 1.79925 15.3504 1.52344 15.3176C3.1167 16.3418 4.97127 16.8854 6.86535 16.8834C13.2763 16.8834 16.7817 11.5729 16.7817 6.96759C16.7817 6.81692 16.778 6.66572 16.7713 6.51664C17.4536 6.02371 18.0425 5.41306 18.5104 4.71337Z"
                fill="#393939"
              />
</svg>