<svg xmlns="http://www.w3.org/2000/svg" width="20" height="20" viewBox="0 0 20 20" fill="none">
              <path
                d="M10.2033 3.33337C10.6484 3.33582 11.762 3.34659 12.9452 3.39398L13.3647 3.41227C14.5559 3.46867 15.7462 3.56502 16.3365 3.72962C17.1239 3.95083 17.7428 4.59629 17.952 5.41447C18.2851 6.71372 18.3267 9.24954 18.3319 9.86321L18.3327 9.99037V9.99929C18.3327 9.99929 18.3327 10.0024 18.3327 10.0083L18.3319 10.1355C18.3267 10.7491 18.2851 13.285 17.952 14.5842C17.7399 15.4054 17.121 16.0509 16.3365 16.269C15.7462 16.4336 14.5559 16.53 13.3647 16.5864L12.9452 16.6046C11.762 16.652 10.6484 16.6628 10.2033 16.6653L10.008 16.666H9.99933C9.99933 16.666 9.99641 16.666 9.99066 16.666L9.7955 16.6653C8.8535 16.6601 4.91485 16.6175 3.66217 16.269C2.87475 16.0478 2.25585 15.4024 2.04664 14.5842C1.71358 13.285 1.67195 10.7491 1.66675 10.1355V9.86321C1.67195 9.24954 1.71358 6.71372 2.04664 5.41447C2.25875 4.59326 2.87765 3.94781 3.66217 3.72962C4.91485 3.38107 8.8535 3.33856 9.7955 3.33337H10.2033ZM8.33267 7.08266V12.916L13.3327 9.99929L8.33267 7.08266Z"
                fill="#393939"
              />
            </svg>