<svg preserveAspectRatio="none" width="100%" height="100%" overflow="visible" viewBox="0 0 1440 1245" fill="none" xmlns="http://www.w3.org/2000/svg">
  <g opacity="0.6">
    <line y1="0.607143" x2="1440" y2="0.607143" stroke="#1E1E1E" stroke-opacity="0.6" stroke-width="0.785714"/>
    <line y1="40.6071" x2="1440" y2="40.6071" stroke="#1E1E1E" stroke-opacity="0.6" stroke-width="0.785714"/>
    <line y1="80.6071" x2="1440" y2="80.6071" stroke="#1E1E1E" stroke-opacity="0.6" stroke-width="0.785714"/>
    <line y1="120.607" x2="1440" y2="120.607" stroke="#1E1E1E" stroke-opacity="0.6" stroke-width="0.785714"/>
    <line y1="160.607" x2="1440" y2="160.607" stroke="#1E1E1E" stroke-opacity="0.6" stroke-width="0.785714"/>
    <line y1="200.607" x2="1440" y2="200.607" stroke="#1E1E1E" stroke-opacity="0.6" stroke-width="0.785714"/>
    <line y1="240.607" x2="1440" y2="240.607" stroke="#1E1E1E" stroke-opacity="0.6" stroke-width="0.785714"/>
    <line y1="280.607" x2="1440" y2="280.607" stroke="#1E1E1E" stroke-opacity="0.6" stroke-width="0.785714"/>
    <line y1="320.607" x2="1440" y2="320.607" stroke="#1E1E1E" stroke-opacity="0.6" stroke-width="0.785714"/>
    <line y1="360.607" x2="1440" y2="360.607" stroke="#1E1E1E" stroke-opacity="0.6" stroke-width="0.785714"/>
    <line y1="400.607" x2="1440" y2="400.607" stroke="#1E1E1E" stroke-opacity="0.6" stroke-width="0.785714"/>
    <line y1="440.607" x2="1440" y2="440.607" stroke="#1E1E1E" stroke-opacity="0.6" stroke-width="0.785714"/>
    <line y1="480.607" x2="1440" y2="480.607" stroke="#1E1E1E" stroke-opacity="0.6" stroke-width="0.785714"/>
    <line y1="520.607" x2="1440" y2="520.607" stroke="#1E1E1E" stroke-opacity="0.6" stroke-width="0.785714"/>
    <line y1="560.607" x2="1440" y2="560.607" stroke="#1E1E1E" stroke-opacity="0.6" stroke-width="0.785714"/>
    <line y1="600.607" x2="1440" y2="600.607" stroke="#1E1E1E" stroke-opacity="0.6" stroke-width="0.785714"/>
    <line y1="640.607" x2="1440" y2="640.607" stroke="#1E1E1E" stroke-opacity="0.6" stroke-width="0.785714"/>
    <line y1="680.607" x2="1440" y2="680.607" stroke="#1E1E1E" stroke-opacity="0.6" stroke-width="0.785714"/>
    <line y1="720.607" x2="1440" y2="720.607" stroke="#1E1E1E" stroke-opacity="0.6" stroke-width="0.785714"/>
    <line y1="760.607" x2="1440" y2="760.607" stroke="#1E1E1E" stroke-opacity="0.6" stroke-width="0.785714"/>
    <line y1="800.607" x2="1440" y2="800.607" stroke="#1E1E1E" stroke-opacity="0.6" stroke-width="0.785714"/>
    <line y1="840.607" x2="1440" y2="840.607" stroke="#1E1E1E" stroke-opacity="0.6" stroke-width="0.785714"/>
    <line y1="880.607" x2="1440" y2="880.607" stroke="#1E1E1E" stroke-opacity="0.6" stroke-width="0.785714"/>
    <line y1="920.607" x2="1440" y2="920.607" stroke="#1E1E1E" stroke-opacity="0.6" stroke-width="0.785714"/>
    <line y1="960.607" x2="1440" y2="960.607" stroke="#1E1E1E" stroke-opacity="0.6" stroke-width="0.785714"/>
    <line y1="1000.61" x2="1440" y2="1000.61" stroke="#1E1E1E" stroke-opacity="0.6" stroke-width="0.785714"/>
    <line y1="1040.61" x2="1440" y2="1040.61" stroke="#1E1E1E" stroke-opacity="0.6" stroke-width="0.785714"/>
    <line y1="1080.61" x2="1440" y2="1080.61" stroke="#1E1E1E" stroke-opacity="0.6" stroke-width="0.785714"/>
    <line y1="1120.61" x2="1440" y2="1120.61" stroke="#1E1E1E" stroke-opacity="0.6" stroke-width="0.785714"/>
    <line y1="1160.61" x2="1440" y2="1160.61" stroke="#1E1E1E" stroke-opacity="0.6" stroke-width="0.785714"/>
    <line y1="1200.61" x2="1440" y2="1200.61" stroke="#1E1E1E" stroke-opacity="0.6" stroke-width="0.785714"/>
    <line y1="1240.61" x2="1440" y2="1240.61" stroke="#1E1E1E" stroke-opacity="0.6" stroke-width="0.785714"/>
  </g>
</svg>