<svg width="618" height="213" viewBox="0 0 618 213" fill="none" xmlns="http://www.w3.org/2000/svg">
<path d="M0 2.46434H52.9313V55.9218H52.174C52.1179 49.8557 51.641 44.2319 50.7434 39.0505C49.9019 33.869 48.4994 28.1189 46.5358 21.8C45.9748 20.0307 45.2175 18.1983 44.2637 16.3026C43.3661 14.407 42.4124 12.6377 41.4026 10.9948C40.4489 9.35189 39.5232 8.02493 38.6256 7.01392C37.7841 6.00291 37.167 5.56058 36.7742 5.68696H34.9229L35.0071 117.151C35.0071 123.091 36.6901 126.061 40.0562 126.061H42.749V129.284H9.17252V126.061H12.0337C15.7363 126.061 17.5877 122.523 17.5877 115.445V5.68696H15.9888C15.6522 5.68696 15.1753 6.0029 14.5582 6.63479C13.9972 7.26667 13.3521 8.15131 12.6227 9.2887C11.8934 10.2997 11.1361 11.4371 10.3506 12.7009C9.62133 13.9647 8.94812 15.2284 8.33101 16.4922C7.15289 19.0197 6.08697 21.9264 5.13325 25.2122C4.17953 28.498 3.28191 32.2261 2.4404 36.3966C2.10379 38.1658 1.82328 39.6824 1.59888 40.9461C1.37448 42.2099 1.20617 43.4737 1.09397 44.7375C0.981769 45.8748 0.897617 47.0754 0.841516 48.3392C0.841516 49.603 0.841516 51.1827 0.841516 53.0783V55.9218H0V2.46434Z" fill="#393939"/>
<path d="M83.6907 2.27478C81.8394 2.27478 80.3247 3.22261 79.1465 5.11826C77.9684 6.88754 76.9586 9.98377 76.1171 14.407C74.0413 25.4018 73.0035 42.4627 73.0035 65.5897C73.0035 86.9474 73.7328 102.934 75.1914 113.55C75.8085 117.973 76.8464 121.511 78.305 124.165C79.8198 126.819 81.5308 128.146 83.4383 128.146C84.8969 128.146 86.2433 127.325 87.4776 125.682C88.7679 124.039 89.7216 121.891 90.3387 119.237C91.4046 114.434 92.2181 107.926 92.7791 99.7115C93.3401 91.3706 93.6206 81.8923 93.6206 71.2766C93.6206 69.2546 93.5926 66.6639 93.5365 63.5044C93.5365 60.2186 93.5084 56.996 93.4523 53.8366C93.3962 50.5508 93.3121 47.5177 93.1999 44.7375C93.1438 41.8308 93.0877 39.6824 93.0316 38.2922C92.7511 31.3415 92.3864 25.5913 91.9376 21.0418C91.4888 16.3658 90.8997 12.6377 90.1704 9.8574C89.4972 7.07711 88.6276 5.11826 87.5617 3.98087C86.4958 2.84348 85.2055 2.27478 83.6907 2.27478ZM84.0273 0C87.1129 0 90.1985 1.57971 93.284 4.73913C96.4257 7.89855 99.4271 12.4481 102.288 18.3879C105.654 25.465 108.095 32.7948 109.609 40.3774C111.18 47.8337 111.966 56.2378 111.966 65.5897C111.966 73.9305 111.18 82.0187 109.609 89.854C108.039 97.6894 105.935 104.64 103.298 110.706C100.661 116.646 97.6318 121.448 94.2097 125.113C90.8436 128.652 87.3092 130.421 83.6066 130.421C81.8113 130.421 79.96 129.916 78.0526 128.905C76.1451 127.894 74.2657 126.44 72.4144 124.545C70.5631 122.649 68.7959 120.437 67.1129 117.91C65.4298 115.256 63.9432 112.349 62.6528 109.19C60.3527 103.629 58.5855 97.1839 57.3513 89.854C56.1171 82.5242 55.4999 74.8784 55.4999 66.9166C55.4999 57.1856 56.4537 47.9601 58.3611 39.2401C60.2685 30.3937 62.9894 22.6847 66.5238 16.1131C72.3022 5.37102 78.1367 0 84.0273 0Z" fill="#393939"/>
<path d="M112.216 126.061H114.236C116.312 126.061 117.882 123.913 118.948 119.616C119.678 116.709 120.267 113.234 120.715 109.19C121.164 105.146 121.389 101.291 121.389 97.6262V20.2835C121.389 18.1351 121.192 16.0499 120.8 14.0278C120.407 12.0058 119.874 10.4893 119.201 9.47827C118.584 8.46726 117.77 7.709 116.76 7.20349C115.807 6.5716 114.292 5.93972 112.216 5.30783V2.27478H137.714L148.654 90.0436L158.247 2.27478H182.314V5.30783H179.369C177.069 5.30783 175.554 5.87653 174.825 7.01392C174.096 8.15132 173.731 10.6157 173.731 14.407V114.308C173.731 118.478 174.096 121.511 174.825 123.407C175.554 125.176 176.817 126.061 178.612 126.061H182.314V129.094H150.589V126.061H153.955C156.087 126.061 157.153 122.143 157.153 114.308V25.0226L145.54 129.094H136.199L122.483 25.0226V95.1619C122.483 100.47 122.623 104.956 122.903 108.621C123.24 112.16 123.773 115.382 124.502 118.289C125.288 121.322 126.017 123.407 126.69 124.545C127.42 125.556 128.373 126.061 129.551 126.061H132.497V129.094H112.216V126.061Z" fill="#393939"/>
<path d="M212.057 73.741L205.157 23.3165L197.752 73.741H212.057ZM180.921 125.871C182.324 125.745 183.614 125.05 184.792 123.786C186.027 122.396 187.149 120.311 188.158 117.531C189.224 114.624 190.262 110.959 191.272 106.536C192.282 101.986 193.292 96.4888 194.301 90.0436L206.756 1.51652H219.379L236.125 113.929C236.517 116.583 236.854 118.731 237.135 120.374C237.471 121.891 237.808 123.091 238.144 123.976C238.537 124.734 238.986 125.24 239.491 125.492C239.996 125.745 240.641 125.871 241.426 125.871H243.867V128.905H211.216V125.871H214.666C217.078 125.871 218.285 124.102 218.285 120.564C218.285 118.668 218.116 116.456 217.78 113.929L212.394 76.5845H197.752C197.303 78.9856 196.854 81.5763 196.405 84.3566C196.013 87.0106 195.648 89.6645 195.311 92.3184C195.031 94.8459 194.806 97.3103 194.638 99.7115C194.47 102.113 194.386 104.135 194.386 105.778C194.386 109.695 194.694 113.234 195.311 116.393C195.928 119.426 196.77 121.638 197.836 123.028C198.677 124.165 199.519 124.924 200.36 125.303C201.202 125.682 202.352 125.871 203.811 125.871V128.905H180.921V125.871Z" fill="#393939"/>
<path d="M246.467 71.8453C246.58 74.1201 246.72 76.2053 246.888 78.101C247.113 79.8703 247.393 81.7659 247.73 83.7879C248.122 85.6836 248.599 87.832 249.16 90.2332C249.777 92.6343 250.535 95.541 251.432 98.9532C254.181 109.569 256.902 117.341 259.595 122.27C262.288 127.072 265.149 129.473 268.179 129.473C270.086 129.473 271.573 128.968 272.639 127.957C273.705 126.946 274.63 125.176 275.416 122.649C276.93 118.099 277.688 113.107 277.688 107.673C277.688 101.481 276.706 96.4888 274.742 92.6975C274.125 91.5601 273.564 90.6123 273.059 89.854C272.611 89.0958 271.853 88.2111 270.787 87.2001C269.721 86.1891 268.207 84.9253 266.243 83.4088C264.28 81.8923 261.503 79.8071 257.912 77.1532C254.097 74.2465 251.096 69.6969 248.908 63.5044C246.72 57.1856 245.626 50.0453 245.626 42.0835C245.626 36.5229 246.187 31.2783 247.309 26.3496C248.487 21.4209 250.03 17.1241 251.937 13.4591C253.901 9.66783 256.173 6.69797 258.754 4.54957C261.334 2.40116 264.055 1.32695 266.916 1.32695C267.533 1.32695 268.066 1.39014 268.515 1.51652C269.02 1.51652 269.581 1.70608 270.198 2.08522C270.815 2.33797 271.601 2.78028 272.555 3.41217C273.564 4.04406 274.883 4.86551 276.51 5.87652C277.407 6.50841 278.277 7.01392 279.118 7.39305C279.96 7.6458 280.745 7.77218 281.475 7.77218C283.719 7.77218 285.093 5.30783 285.598 0.379126H286.608V49.0975H285.598C285.205 42.5259 284.448 36.4598 283.326 30.8992C282.26 25.3386 280.942 20.5363 279.371 16.4922C277.856 12.4481 276.117 9.28871 274.153 7.01392C272.19 4.73914 270.114 3.60174 267.926 3.60174C265.57 3.60174 263.634 5.43421 262.12 9.09914C260.605 12.6377 259.848 17.2505 259.848 22.9374C259.848 25.7177 260.128 28.4348 260.689 31.0887C261.306 33.7427 262.148 35.9542 263.214 37.7235C264.504 39.8719 265.71 41.3253 266.832 42.0835L277.519 48.9079C282.12 51.8146 285.598 56.5537 287.954 63.1253C290.31 69.5705 291.489 77.5323 291.489 87.0106C291.489 94.0877 290.928 100.28 289.806 105.588C288.684 110.896 286.888 115.698 284.42 119.995C282.232 123.913 279.82 126.883 277.183 128.905C274.602 130.927 271.937 131.938 269.188 131.938C268.066 131.938 267.141 131.874 266.411 131.748C265.738 131.748 264.869 131.432 263.803 130.8C262.793 130.295 261.446 129.473 259.763 128.336C258.137 127.072 255.836 125.366 252.863 123.218C252.022 122.586 251.152 122.27 250.254 122.27C248.066 122.27 246.804 124.418 246.467 128.715H245.542V71.8453H246.467Z" fill="#393939"/>
<path d="M293.054 125.682H295.494C298.524 125.682 300.039 120.88 300.039 111.275V12.8904C300.039 7.70899 298.524 5.11826 295.494 5.11826H293.054V2.27478H324.106V5.11826H321.918C320.459 5.11826 319.281 5.87652 318.384 7.39305C317.486 8.78319 317.037 10.6157 317.037 12.8904V115.445C317.037 118.605 317.402 121.132 318.131 123.028C318.86 124.797 319.842 125.682 321.076 125.682H324.106V128.905H293.054V125.682Z" fill="#393939"/>
<path d="M324.205 125.871H325.972C328.329 125.871 330.18 122.775 331.526 116.583C332.873 110.39 333.546 101.733 333.546 90.6123V18.9565C333.546 17.1873 333.322 15.418 332.873 13.6487C332.48 11.7531 331.947 10.1733 331.274 8.90958C330.713 7.89856 330.096 7.20348 329.423 6.82435C328.805 6.31885 327.908 6.00291 326.73 5.87652V2.46434H351.302L371.498 90.6123V33.9322C371.498 32.6684 371.442 31.1519 371.33 29.3826C371.218 27.487 371.078 25.6545 370.909 23.8852C370.741 21.9896 370.545 20.2203 370.32 18.5774C370.152 16.9345 369.984 15.6707 369.815 14.7861C368.581 8.84638 366.59 5.87652 363.841 5.87652H361.653V2.46434H381.176V5.87652H379.156C378.315 5.87652 377.417 6.63479 376.463 8.15131C375.566 9.66784 374.808 11.5635 374.191 13.8383C373.63 15.9867 373.238 18.5142 373.013 21.4209C372.789 24.2012 372.676 27.8029 372.676 32.2261V129.473H359.381L334.64 22.3687V93.4558C334.64 96.868 334.64 99.7114 334.64 101.986C334.696 104.261 334.78 106.22 334.892 107.863C335.061 109.506 335.229 110.959 335.397 112.223C335.622 113.487 335.902 114.877 336.239 116.393C337.024 119.805 337.866 122.207 338.763 123.597C339.661 124.86 341.007 125.619 342.803 125.871L344.738 126.251V129.094H324.121L324.205 125.871Z" fill="#393939"/>
<path d="M409.469 2.27478C407.618 2.27478 406.103 3.22261 404.925 5.11826C403.747 6.88754 402.737 9.98377 401.895 14.407C399.82 25.4018 398.782 42.4627 398.782 65.5897C398.782 86.9474 399.511 102.934 400.97 113.55C401.587 117.973 402.625 121.511 404.083 124.165C405.598 126.819 407.309 128.146 409.217 128.146C410.675 128.146 412.022 127.325 413.256 125.682C414.546 124.039 415.5 121.891 416.117 119.237C417.183 114.434 417.996 107.926 418.557 99.7115C419.118 91.3706 419.399 81.8923 419.399 71.2766C419.399 69.2546 419.371 66.6639 419.315 63.5044C419.315 60.2186 419.287 56.996 419.231 53.8366C419.175 50.5508 419.09 47.5177 418.978 44.7375C418.922 41.8308 418.866 39.6824 418.81 38.2922C418.529 31.3415 418.165 25.5913 417.716 21.0418C417.267 16.3658 416.678 12.6377 415.949 9.8574C415.276 7.07711 414.406 5.11826 413.34 3.98087C412.274 2.84348 410.984 2.27478 409.469 2.27478ZM409.806 0C412.891 0 415.977 1.57971 419.062 4.73913C422.204 7.89855 425.205 12.4481 428.067 18.3879C431.433 25.465 433.873 32.7948 435.388 40.3774C436.959 47.8337 437.744 56.2378 437.744 65.5897C437.744 73.9305 436.959 82.0187 435.388 89.854C433.817 97.6894 431.713 104.64 429.076 110.706C426.44 116.646 423.41 121.448 419.988 125.113C416.622 128.652 413.088 130.421 409.385 130.421C407.59 130.421 405.738 129.916 403.831 128.905C401.924 127.894 400.044 126.44 398.193 124.545C396.341 122.649 394.574 120.437 392.891 117.91C391.208 115.256 389.722 112.349 388.431 109.19C386.131 103.629 384.364 97.1839 383.13 89.854C381.895 82.5242 381.278 74.8784 381.278 66.9166C381.278 57.1856 382.232 47.9601 384.139 39.2401C386.047 30.3937 388.768 22.6847 392.302 16.1131C398.081 5.37102 403.915 0 409.806 0Z" fill="#393939"/>
<path d="M460.843 5.68696C458.431 5.81333 457.224 7.58261 457.224 10.9948C457.224 11.6267 457.253 12.4481 457.309 13.4591C457.365 14.3438 457.449 15.2284 457.561 16.1131L465.808 87.7688L470.268 47.7705L466.902 14.7861C466.509 11.2475 466.06 8.90957 465.555 7.77218C465.107 6.63479 464.237 5.93972 462.947 5.68696V2.46434H487.603V5.68696H485.499C484.434 5.68696 483.901 7.07711 483.901 9.8574C483.901 10.742 483.901 11.4371 483.901 11.9426C483.901 12.3218 483.957 12.8273 484.069 13.4591L491.811 88.148L497.449 39.9983C498.066 34.6905 498.375 29.2563 498.375 23.6957C498.375 17.8823 497.954 13.4591 497.112 10.4261C496.327 7.26667 495.149 5.68696 493.578 5.68696H492.063V2.46434H509.146V5.68696H507.295C506.229 5.68696 505.219 6.95073 504.265 9.47827C503.816 10.8684 503.34 12.5745 502.835 14.5965C502.33 16.6186 501.825 18.767 501.32 21.0418C500.871 23.3166 500.45 25.5913 500.058 27.8661C499.665 30.1409 499.384 32.2261 499.216 34.1218L488.445 129.852H478.936L471.025 54.7844L462.189 129.852H453.269L440.394 12.7009C439.889 8.02493 438.908 5.68696 437.449 5.68696H436.187V2.46434H460.843V5.68696Z" fill="#393939"/>
<path d="M507.719 2.08522H556.275V50.2349H555.265C555.209 46.9491 555.097 44.1056 554.928 41.7044C554.816 39.1769 554.62 36.9021 554.339 34.88C554.059 32.7316 553.666 30.7096 553.161 28.814C552.656 26.7919 552.039 24.7067 551.31 22.5583C547.215 10.8052 541.969 4.9287 535.574 4.9287H532.965V59.1444H534.564C536.078 59.1444 537.593 58.1334 539.108 56.1114C540.679 53.963 542.053 51.0563 543.231 47.3914C544.241 44.3583 544.914 41.6412 545.251 39.2401C545.644 36.8389 545.84 33.8058 545.84 30.1409V28.4348H546.934V96.2993H545.84V94.4036C545.84 90.6123 545.616 87.3265 545.167 84.5462C544.774 81.6395 544.073 78.6065 543.063 75.4471C541.941 71.7821 540.567 68.8123 538.94 66.5375C537.313 64.1363 535.854 62.9357 534.564 62.9357H532.965V120.753C532.965 122.902 533.33 124.418 534.059 125.303C534.788 126.061 536.078 126.44 537.93 126.44C540.959 126.44 543.456 125.429 545.419 123.407C547.439 121.385 549.206 118.036 550.721 113.36C552.011 109.569 553.217 105.272 554.339 100.47C555.461 95.6674 556.359 91.0546 557.032 86.6314C557.425 84.2303 557.677 82.0187 557.79 79.9966C557.958 77.8482 558.07 74.752 558.126 70.7079H559.22V128.905H507.719V126.44H510.496C512.853 126.44 514.48 125.619 515.377 123.976C516.275 122.333 516.724 119.3 516.724 114.877V12.5113C516.724 9.73102 516.219 7.77218 515.209 6.63479C514.199 5.49739 512.516 4.9287 510.16 4.9287H507.719V2.08522Z" fill="#393939"/>
<path d="M585.944 59.1444H592.592C594.219 59.1444 595.369 57.2488 596.042 53.4575C596.772 49.5398 597.136 43.3473 597.136 34.88C597.136 28.0557 596.884 22.2424 596.379 17.44C595.93 12.5113 595.313 9.2887 594.528 7.77218C594.023 6.76116 593.462 6.12928 592.845 5.87652C592.284 5.62377 591.218 5.4974 589.647 5.4974H585.944V59.1444ZM586.028 117.531C586.028 123.344 587.038 126.251 589.058 126.251H593.518C595.257 126.251 596.575 124.229 597.473 120.185C598.371 116.14 598.819 110.201 598.819 102.365C598.819 97.8158 598.791 93.8981 598.735 90.6123C598.679 87.2001 598.567 84.2303 598.399 81.7027C598.286 79.1752 598.118 76.9636 597.894 75.0679C597.669 73.1723 597.389 71.4662 597.052 69.9497C596.603 67.6749 595.818 65.8424 594.696 64.4523C593.63 62.9357 592.508 62.1775 591.33 62.1775H586.028V117.531ZM561.372 125.871H565.159C566.449 125.871 567.487 125.113 568.272 123.597C569.058 122.08 569.45 120.185 569.45 117.91V11.5635C569.45 9.16233 569.114 7.58262 568.441 6.82435C567.824 5.93971 566.561 5.4974 564.654 5.4974H561.877V2.46434H590.573C592.592 2.46434 594.359 2.59072 595.874 2.84348C597.445 3.09623 598.847 3.53855 600.082 4.17043C601.372 4.67594 602.55 5.37102 603.616 6.25566C604.738 7.14029 605.86 8.27769 606.982 9.66784C609.058 12.1954 610.629 15.418 611.695 19.3357C612.817 23.127 613.378 27.4238 613.378 32.2261C613.378 35.6383 613.069 38.9241 612.452 42.0835C611.835 45.243 610.993 47.8969 609.927 50.0453C609.31 51.1827 608.693 52.2569 608.076 53.2679C607.459 54.1525 606.758 54.974 605.972 55.7323C605.187 56.4905 604.261 57.2488 603.195 58.007C602.185 58.7653 600.979 59.5867 599.577 60.4714C601.148 61.1033 602.522 61.7352 603.7 62.367C604.878 62.8726 605.944 63.5044 606.898 64.2627C607.908 65.021 608.805 65.9056 609.591 66.9166C610.376 67.9276 611.19 69.065 612.031 70.3288C613.77 73.1091 615.145 76.774 616.155 81.3236C617.164 85.8732 617.669 90.7387 617.669 95.9201C617.669 101.607 617.052 106.789 615.818 111.465C614.64 116.014 612.957 119.679 610.769 122.459C609.759 123.723 608.721 124.797 607.655 125.682C606.589 126.44 605.355 127.072 603.953 127.578C602.606 128.083 600.979 128.462 599.072 128.715C597.164 128.841 594.864 128.905 592.171 128.905H561.372V125.871Z" fill="#393939"/>
<path d="M0 141.3H52.7169V170.562H51.9626C51.9067 167.241 51.4318 164.163 50.5378 161.327C49.6997 158.491 48.3029 155.343 46.3473 151.884C45.7885 150.916 45.0343 149.913 44.0844 148.875C43.1904 147.837 42.2406 146.869 41.2348 145.97C40.285 145.07 39.3631 144.344 38.4691 143.79C37.631 143.237 37.0164 142.995 36.6253 143.064H34.7814L34.8652 204.078C34.8652 207.329 36.5414 208.955 39.8939 208.955H42.5758V210.719H9.13536V208.955H11.9849C15.6726 208.955 17.5164 207.018 17.5164 203.144V143.064H15.924C15.5888 143.064 15.1139 143.237 14.4992 143.583C13.9405 143.929 13.298 144.413 12.5716 145.036C11.8452 145.589 11.0909 146.212 10.3087 146.903C9.58235 147.595 8.91186 148.287 8.29725 148.979C7.1239 150.362 6.0623 151.953 5.11245 153.752C4.1626 155.551 3.26861 157.591 2.43051 159.874C2.09527 160.843 1.8159 161.673 1.5924 162.364C1.36891 163.056 1.20129 163.748 1.08954 164.44C0.977791 165.062 0.89398 165.719 0.838106 166.411C0.838106 167.103 0.838106 167.968 0.838106 169.005V170.562H0V141.3Z" fill="#393939"/>
<path d="M53.1896 208.851H54.5306C55.6481 208.851 56.5979 208.332 57.3802 207.295C58.2183 206.257 58.6373 205.012 58.6373 203.559V146.592C58.6373 144.24 57.5757 143.064 55.4525 143.064H53.1896V141.3H80.8471V143.064H79.5062C78.3328 142.995 77.2992 143.41 76.4052 144.309C75.5671 145.209 75.148 146.35 75.148 147.734V171.496H92.6644V147.734C92.6644 146.35 92.3013 145.243 91.5749 144.413C90.9044 143.514 90.0104 143.064 88.893 143.064H87.4682V141.3H115.042V143.064H113.282C112.053 143.064 111.075 143.479 110.348 144.309C109.678 145.139 109.343 146.281 109.343 147.734V204.804C109.343 205.98 109.65 206.983 110.265 207.814C110.935 208.574 111.773 208.92 112.779 208.851H115.042V210.511H87.4682V208.851H88.893C91.4073 208.851 92.6644 206.81 92.6644 202.729V173.156H75.148V204.804C75.148 207.502 76.1258 208.851 78.0814 208.851H80.8471V210.511H53.1896V208.851Z" fill="#393939"/>
<path d="M115.069 141.093H163.427V167.449H162.422C162.366 165.65 162.254 164.094 162.086 162.779C161.975 161.396 161.779 160.151 161.5 159.044C161.22 157.868 160.829 156.761 160.326 155.723C159.824 154.617 159.209 153.475 158.483 152.299C154.404 145.866 149.18 142.649 142.81 142.649H140.212V172.326H141.804C143.313 172.326 144.821 171.772 146.33 170.666C147.895 169.49 149.263 167.899 150.437 165.892C151.443 164.232 152.113 162.745 152.448 161.431C152.839 160.116 153.035 158.456 153.035 156.45V155.516H154.124V192.664H153.035V191.626C153.035 189.551 152.811 187.752 152.364 186.23C151.973 184.639 151.275 182.979 150.269 181.25C149.152 179.244 147.783 177.618 146.162 176.373C144.542 175.058 143.089 174.401 141.804 174.401H140.212V206.05C140.212 207.226 140.575 208.056 141.301 208.54C142.028 208.955 143.313 209.162 145.157 209.162C148.174 209.162 150.66 208.609 152.616 207.502C154.627 206.395 156.387 204.562 157.896 202.003C159.181 199.927 160.382 197.575 161.5 194.947C162.617 192.318 163.511 189.793 164.182 187.372C164.573 186.057 164.824 184.847 164.936 183.74C165.104 182.564 165.215 180.869 165.271 178.656H166.361V210.511H115.069V209.162H117.834C120.181 209.162 121.802 208.713 122.695 207.814C123.589 206.914 124.036 205.254 124.036 202.833V146.8C124.036 145.278 123.534 144.206 122.528 143.583C121.522 142.96 119.846 142.649 117.499 142.649H115.069V141.093Z" fill="#393939"/>
<path d="M214.407 173.675H218.179C219.687 173.675 220.917 173.467 221.866 173.052C222.816 172.637 223.571 171.911 224.129 170.873C224.744 169.766 225.163 168.314 225.386 166.515C225.61 164.716 225.722 162.434 225.722 159.667C225.722 156.069 225.61 153.337 225.386 151.469C225.219 149.532 224.856 147.941 224.297 146.696C223.347 144.413 221.755 143.272 219.52 143.272H214.407V173.675ZM191.359 208.54H192.616C196.025 208.54 197.729 206.949 197.729 203.767V146.592C197.729 145.347 197.45 144.482 196.891 143.998C196.388 143.514 195.466 143.272 194.125 143.272H191.611V141.3H218.598C220.721 141.3 222.593 141.369 224.213 141.508C225.833 141.646 227.286 141.854 228.571 142.13C229.912 142.407 231.113 142.822 232.175 143.375C233.293 143.86 234.41 144.448 235.528 145.139C237.651 146.523 239.299 148.391 240.472 150.743C241.702 153.026 242.316 155.447 242.316 158.006C242.316 159.736 242.009 161.465 241.394 163.195C240.836 164.924 240.053 166.377 239.048 167.553C238.433 168.314 237.818 168.971 237.204 169.524C236.589 170.078 235.863 170.631 235.025 171.184C234.187 171.669 233.209 172.188 232.091 172.741C230.974 173.294 229.633 173.882 228.068 174.505C229.912 175.128 231.505 175.716 232.846 176.269C234.187 176.822 235.332 177.41 236.282 178.033C237.232 178.656 238.014 179.347 238.629 180.108C239.299 180.869 239.858 181.734 240.305 182.702C240.64 183.394 240.919 184.086 241.143 184.778C241.422 185.469 241.618 186.265 241.73 187.164C241.841 188.064 241.925 189.101 241.981 190.277C242.037 191.453 242.065 192.871 242.065 194.532V201.899C242.065 204.32 242.596 205.531 243.657 205.531C244.775 205.531 245.669 204.32 246.339 201.899C247.01 199.409 247.345 196.261 247.345 192.456C247.345 192.318 247.345 191.799 247.345 190.9C247.345 189.931 247.317 189.067 247.261 188.306H248.351C248.406 189.482 248.434 190.519 248.434 191.419C248.434 192.249 248.434 192.906 248.434 193.39C248.434 197.195 248.127 200.273 247.512 202.625C246.898 204.908 245.892 206.741 244.495 208.125C242.316 210.269 239.69 211.342 236.617 211.342C234.717 211.342 232.846 210.892 231.002 209.993C229.158 209.024 227.649 207.744 226.476 206.153C224.744 203.94 223.878 200.204 223.878 194.947C223.878 194.601 223.878 193.978 223.878 193.079C223.934 192.11 223.99 191.246 224.045 190.485C224.101 189.17 224.129 187.891 224.129 186.645C224.185 185.4 224.213 184.536 224.213 184.051C224.213 178.31 222.565 175.439 219.268 175.439H214.407V204.078C214.407 205.462 214.659 206.568 215.162 207.398C215.664 208.159 216.335 208.54 217.173 208.54H220.023V210.511H191.359V208.54Z" fill="#393939"/>
<path d="M256.313 209.266H257.989C259.275 209.266 260.252 208.713 260.923 207.606C261.649 206.43 262.012 204.804 262.012 202.729V160.497C262.012 159.251 261.956 158.248 261.845 157.487C261.733 156.727 261.482 156.139 261.09 155.723C260.755 155.308 260.224 155.032 259.498 154.893C258.828 154.755 257.934 154.686 256.816 154.686V153.752C258.213 153.475 259.749 152.922 261.426 152.092C263.158 151.262 264.862 150.328 266.538 149.29C268.214 148.252 269.779 147.146 271.232 145.97C272.684 144.794 273.83 143.652 274.668 142.545H275.422V204.493C275.422 206.015 275.757 207.191 276.428 208.021C277.098 208.851 278.02 209.266 279.194 209.266H281.708V210.511H256.313V209.266Z" fill="#393939"/>
<path d="M307.675 144.621C306.614 144.621 305.664 145.105 304.826 146.073C303.988 146.973 303.345 148.218 302.898 149.809C302.06 152.853 301.641 159.597 301.641 170.043C301.641 174.816 301.669 179.244 301.725 183.325C301.837 187.337 301.948 190.9 302.06 194.013C302.228 197.126 302.395 199.754 302.563 201.899C302.786 203.974 303.038 205.462 303.317 206.361C304.211 209.474 305.748 211.03 307.927 211.03C310.218 211.03 311.81 209.543 312.704 206.568C313.207 204.839 313.57 201.726 313.794 197.229C314.073 192.664 314.213 186.507 314.213 178.759C314.213 175.37 314.185 172.153 314.129 169.109C314.073 166.065 313.989 163.333 313.877 160.912C313.766 158.421 313.626 156.277 313.458 154.478C313.291 152.68 313.095 151.331 312.872 150.431C312.425 148.633 311.754 147.215 310.86 146.177C309.966 145.139 308.905 144.621 307.675 144.621ZM308.346 143.894C310.693 143.894 313.039 144.655 315.386 146.177C317.733 147.63 319.8 149.67 321.588 152.299C323.544 155.135 325.08 158.767 326.198 163.195C327.315 167.622 327.874 172.326 327.874 177.307C327.874 182.08 327.371 186.576 326.365 190.796C325.359 195.016 323.963 198.717 322.175 201.899C320.443 205.012 318.403 207.502 316.056 209.37C313.71 211.169 311.195 212.068 308.514 212.068C305.552 212.068 302.842 211.238 300.384 209.578C297.981 207.917 295.886 205.6 294.098 202.625C292.366 199.581 290.997 195.984 289.991 191.834C289.041 187.683 288.567 183.117 288.567 178.137C288.567 168.66 290.103 161.085 293.176 155.412C295.132 151.746 297.423 148.91 300.049 146.903C302.731 144.897 305.496 143.894 308.346 143.894Z" fill="#393939"/>
<path d="M335.138 209.266H336.814C338.099 209.266 339.077 208.713 339.747 207.606C340.474 206.43 340.837 204.804 340.837 202.729V160.497C340.837 159.251 340.781 158.248 340.669 157.487C340.558 156.727 340.306 156.139 339.915 155.723C339.58 155.308 339.049 155.032 338.323 154.893C337.652 154.755 336.758 154.686 335.641 154.686V153.752C337.037 153.475 338.574 152.922 340.25 152.092C341.982 151.262 343.686 150.328 345.363 149.29C347.039 148.252 348.603 147.146 350.056 145.97C351.509 144.794 352.654 143.652 353.492 142.545H354.247V204.493C354.247 206.015 354.582 207.191 355.252 208.021C355.923 208.851 356.845 209.266 358.018 209.266H360.532V210.511H335.138V209.266Z" fill="#393939"/>
<path d="M392.571 141.3H445.288V170.562H444.534C444.478 167.241 444.003 164.163 443.109 161.327C442.271 158.491 440.874 155.343 438.918 151.884C438.359 150.916 437.605 149.913 436.655 148.875C435.761 147.837 434.812 146.869 433.806 145.97C432.856 145.07 431.934 144.344 431.04 143.79C430.202 143.237 429.587 142.995 429.196 143.064H427.352L427.436 204.078C427.436 207.329 429.112 208.955 432.465 208.955H435.147V210.719H401.706V208.955H404.556C408.244 208.955 410.087 207.018 410.087 203.144V143.064H408.495C408.16 143.064 407.685 143.237 407.07 143.583C406.511 143.929 405.869 144.413 405.143 145.036C404.416 145.589 403.662 146.212 402.88 146.903C402.153 147.595 401.483 148.287 400.868 148.979C399.695 150.362 398.633 151.953 397.683 153.752C396.734 155.551 395.84 157.591 395.001 159.874C394.666 160.843 394.387 161.673 394.163 162.364C393.94 163.056 393.772 163.748 393.661 164.44C393.549 165.062 393.465 165.719 393.409 166.411C393.409 167.103 393.409 167.968 393.409 169.005V170.562H392.571V141.3Z" fill="#393939"/>
<path d="M475.923 141.196C474.079 141.196 472.57 141.715 471.397 142.753C470.223 143.721 469.218 145.416 468.38 147.837C466.312 153.856 465.279 163.195 465.279 175.854C465.279 187.545 466.005 196.296 467.458 202.106C468.072 204.528 469.106 206.465 470.559 207.917C472.067 209.37 473.771 210.096 475.671 210.096C477.124 210.096 478.465 209.647 479.694 208.747C480.979 207.848 481.929 206.672 482.544 205.219C483.605 202.591 484.415 199.028 484.974 194.532C485.533 189.966 485.812 184.778 485.812 178.967C485.812 177.86 485.784 176.442 485.728 174.712C485.728 172.914 485.701 171.15 485.645 169.42C485.589 167.622 485.505 165.962 485.393 164.44C485.337 162.849 485.281 161.673 485.226 160.912C484.946 157.107 484.583 153.959 484.136 151.469C483.689 148.91 483.102 146.869 482.376 145.347C481.706 143.825 480.84 142.753 479.778 142.13C478.716 141.508 477.431 141.196 475.923 141.196ZM476.258 139.951C479.331 139.951 482.404 140.816 485.477 142.545C488.606 144.275 491.595 146.765 494.445 150.016C497.797 153.89 500.228 157.903 501.736 162.053C503.301 166.135 504.083 170.735 504.083 175.854C504.083 180.42 503.301 184.847 501.736 189.136C500.172 193.425 498.077 197.229 495.451 200.55C492.824 203.801 489.807 206.43 486.399 208.436C483.047 210.373 479.526 211.342 475.839 211.342C474.051 211.342 472.207 211.065 470.307 210.511C468.408 209.958 466.536 209.162 464.692 208.125C462.848 207.087 461.088 205.877 459.412 204.493C457.736 203.04 456.255 201.449 454.97 199.72C452.679 196.676 450.919 193.148 449.69 189.136C448.461 185.124 447.846 180.938 447.846 176.58C447.846 171.254 448.796 166.204 450.696 161.431C452.595 156.588 455.305 152.368 458.825 148.771C464.58 142.891 470.391 139.951 476.258 139.951Z" fill="#393939"/>
<path d="M534.923 143.168H532.912C531.627 143.168 530.621 143.687 529.895 144.724C529.168 145.762 528.805 147.18 528.805 148.979V197.541C528.805 200.93 529.559 203.352 531.068 204.804C531.906 205.704 533.079 206.43 534.588 206.983C536.153 207.468 537.773 207.71 539.449 207.71C544.366 207.71 547.83 206.153 549.842 203.04C550.233 202.418 550.54 201.899 550.764 201.484C551.043 201 551.238 200.446 551.35 199.824C551.462 199.132 551.518 198.302 551.518 197.333C551.574 196.365 551.602 195.05 551.602 193.39L551.518 157.384C551.518 155.17 551.155 153.026 550.428 150.95C549.702 148.806 548.752 147.146 547.579 145.97C546.517 145.001 545.483 144.309 544.478 143.894C543.472 143.41 542.299 143.168 540.958 143.168H540.539V141.508H561.994V143.168C561.659 143.099 561.324 143.064 560.988 143.064C560.653 143.064 560.43 143.064 560.318 143.064C558.753 143.064 557.496 143.548 556.546 144.517C555.317 145.762 554.339 147.561 553.613 149.913C552.887 152.265 552.524 154.755 552.524 157.384V196.607C552.524 199.236 552.021 201.484 551.015 203.352C550.009 205.219 548.333 206.949 545.986 208.54C544.198 209.785 542.355 210.684 540.455 211.238C538.611 211.791 536.488 212.068 534.085 212.068C529.783 212.068 525.816 211.203 522.184 209.474C518.608 207.675 515.926 205.323 514.138 202.418C513.468 201.311 512.993 200.135 512.714 198.89C512.49 197.575 512.378 195.811 512.378 193.598L512.211 148.045C512.211 146.661 511.875 145.52 511.205 144.621C510.534 143.652 509.668 143.168 508.607 143.168H506.344V141.508H534.923V143.168Z" fill="#393939"/>
<path d="M583.973 173.675H587.744C589.253 173.675 590.482 173.467 591.432 173.052C592.382 172.637 593.136 171.911 593.695 170.873C594.309 169.766 594.729 168.314 594.952 166.515C595.176 164.716 595.287 162.434 595.287 159.667C595.287 156.069 595.176 153.337 594.952 151.469C594.784 149.532 594.421 147.941 593.862 146.696C592.913 144.413 591.32 143.272 589.085 143.272H583.973V173.675ZM560.925 208.54H562.182C565.59 208.54 567.295 206.949 567.295 203.767V146.592C567.295 145.347 567.015 144.482 566.456 143.998C565.954 143.514 565.032 143.272 563.691 143.272H561.176V141.3H588.163C590.287 141.3 592.158 141.369 593.779 141.508C595.399 141.646 596.852 141.854 598.137 142.13C599.478 142.407 600.679 142.822 601.741 143.375C602.858 143.86 603.976 144.448 605.093 145.139C607.216 146.523 608.865 148.391 610.038 150.743C611.267 153.026 611.882 155.447 611.882 158.006C611.882 159.736 611.574 161.465 610.96 163.195C610.401 164.924 609.619 166.377 608.613 167.553C607.999 168.314 607.384 168.971 606.769 169.524C606.155 170.078 605.428 170.631 604.59 171.184C603.752 171.669 602.774 172.188 601.657 172.741C600.539 173.294 599.198 173.882 597.634 174.505C599.478 175.128 601.07 175.716 602.411 176.269C603.752 176.822 604.898 177.41 605.847 178.033C606.797 178.656 607.58 179.347 608.194 180.108C608.865 180.869 609.423 181.734 609.87 182.702C610.206 183.394 610.485 184.086 610.708 184.778C610.988 185.469 611.183 186.265 611.295 187.164C611.407 188.064 611.491 189.101 611.547 190.277C611.602 191.453 611.63 192.871 611.63 194.532V201.899C611.63 204.32 612.161 205.531 613.223 205.531C614.34 205.531 615.234 204.32 615.905 201.899C616.575 199.409 616.91 196.261 616.91 192.456C616.91 192.318 616.91 191.799 616.91 190.9C616.91 189.931 616.883 189.067 616.827 188.306H617.916C617.972 189.482 618 190.519 618 191.419C618 192.249 618 192.906 618 193.39C618 197.195 617.693 200.273 617.078 202.625C616.463 204.908 615.458 206.741 614.061 208.125C611.882 210.269 609.256 211.342 606.183 211.342C604.283 211.342 602.411 210.892 600.567 209.993C598.724 209.024 597.215 207.744 596.042 206.153C594.309 203.94 593.443 200.204 593.443 194.947C593.443 194.601 593.443 193.978 593.443 193.079C593.499 192.11 593.555 191.246 593.611 190.485C593.667 189.17 593.695 187.891 593.695 186.645C593.751 185.4 593.779 184.536 593.779 184.051C593.779 178.31 592.13 175.439 588.834 175.439H583.973V204.078C583.973 205.462 584.224 206.568 584.727 207.398C585.23 208.159 585.9 208.54 586.739 208.54H589.588V210.511H560.925V208.54Z" fill="#393939"/>
</svg>
