<svg width="618" height="166" viewBox="0 0 618 166" fill="none" xmlns="http://www.w3.org/2000/svg">
<path d="M1.9479 2.46079H48.9858L49.3248 30.3892H46.7398C44.6493 14.5334 40.3127 6.60542 33.7303 6.60542H32.4166V83.7594H41.019V87.9678H9.95705V83.7594H18.5171V6.60542H17.2458C10.6633 6.60542 6.31267 14.5334 4.19385 30.3892H1.60889L1.9479 2.46079Z" fill="#393939"/>
<path d="M53.9015 44.8636C53.9015 32.0683 56.4158 21.6111 61.4445 13.4919C66.4731 5.33015 72.5047 1.24928 79.5392 1.24928C86.0652 1.24928 91.899 5.0751 97.0407 12.7267C102.211 20.3784 104.796 31.2607 104.796 45.3737C104.796 58.594 102.352 69.2 97.4645 77.1917C92.6053 85.1409 86.6585 89.1155 79.624 89.1155C72.0245 89.1155 65.8375 84.8859 61.0631 76.4266C56.2887 67.9673 53.9015 57.4463 53.9015 44.8636ZM88.9892 45.2462C88.9892 32.1534 88.8197 23.524 88.4807 19.3581C88.1699 15.1923 87.3365 11.834 85.9804 9.28349C84.6526 6.73295 82.4491 5.45768 79.3697 5.45768C76.7706 5.45768 74.6942 6.49915 73.1404 8.58209C71.6148 10.6225 70.6543 13.917 70.2588 18.4655C69.8915 23.0139 69.7079 31.8983 69.7079 45.1186C69.7079 58.2114 69.8633 66.8833 70.174 71.1342C70.513 75.3426 71.3747 78.7008 72.759 81.2088C74.1715 83.7169 76.3751 84.9709 79.3697 84.9709C81.8558 84.9709 83.8757 83.9719 85.4295 81.974C87.0116 79.9336 88.0004 76.6391 88.3959 72.0906C88.7914 67.5422 88.9892 58.594 88.9892 45.2462Z" fill="#393939"/>
<path d="M132.51 2.46079L143.104 51.9413L153.783 2.46079H176.158V6.60542H168.869V83.7594H176.158V87.9678H147.511V83.7594H154.969V11.1964L138.57 87.9678H136.578L119.924 10.2399V75.0238C119.924 78.5945 120.221 80.9538 120.814 82.1015C121.407 83.2067 123.046 83.7594 125.73 83.7594H127.721V87.9678H108.737V83.7594H112.211C114.415 83.7594 115.757 83.2067 116.237 82.1015C116.717 80.9963 116.958 78.7646 116.958 75.4063V6.60542H108.737V2.46079H132.51Z" fill="#393939"/>
<path d="M211.966 64.0564H194.083L191.667 72.792C190.735 76.2778 190.269 78.8071 190.269 80.3799C190.269 82.6329 191.681 83.7594 194.507 83.7594H197.642V87.9678H179.336V83.7594H180.988C183.164 83.7594 184.633 83.2067 185.396 82.1015C186.158 80.9963 187.091 78.4245 188.192 74.3861L208.067 0.866699H210.567L231.416 83.7594H237.307V87.9678H209.338V83.7594H216.924L211.966 64.0564ZM195.312 59.6567H210.822L203.363 30.0067L195.312 59.6567Z" fill="#393939"/>
<path d="M274.471 2.84337L275.149 25.7983H271.759C269.979 18.2317 267.945 12.9605 265.657 9.98489C263.397 6.96675 260.656 5.45768 257.436 5.45768C254.695 5.45768 252.435 6.7542 250.655 9.34726C248.876 11.9403 247.986 14.9372 247.986 18.3379C247.986 22.5463 248.918 25.4369 250.783 27.0098C252.647 28.5826 255.854 30.0917 260.402 31.537C267.38 33.79 272.056 37.1907 274.429 41.7392C276.83 46.2451 278.031 51.9838 278.031 58.9553C278.031 67.1596 276.449 74.2373 273.284 80.1886C270.149 86.1399 265.741 89.1155 260.063 89.1155C256.023 89.1155 252.379 87.2026 249.13 83.3768C247.548 85.2472 246.121 87.0751 244.85 88.8605H242.011V63.9289H245.316C247.802 77.9569 252.633 84.9709 259.809 84.9709C263.594 84.9709 266.504 83.2918 268.538 79.9336C270.572 76.5753 271.589 72.8133 271.589 68.6474C271.589 66.3094 271.137 64.2052 270.233 62.3348C269.358 60.4644 268.326 58.9766 267.14 57.8714C265.953 56.7661 262.676 55.3846 257.309 53.7267C251.941 52.0689 248 48.9657 245.485 44.4172C242.999 39.8688 241.756 34.1938 241.756 27.3924C241.756 20.0808 243.282 13.8957 246.333 8.83715C249.412 3.77857 253.24 1.24928 257.817 1.24928C261.292 1.24928 264.753 3.07717 268.199 6.73295C269.301 5.75524 270.488 4.45871 271.759 2.84337H274.471Z" fill="#393939"/>
<path d="M304.262 6.60542V83.7594H311.974V87.9678H282.904V83.7594H290.362V6.60542H282.904V2.46079H311.974V6.60542H304.262Z" fill="#393939"/>
<path d="M336.171 2.46079L358.758 52.7065V15.9149C358.758 12.0466 358.504 9.53855 357.995 8.3908C357.486 7.20055 356.145 6.60542 353.969 6.60542H351.299V2.46079H368.547V6.60542H366.555C364.408 6.60542 363.066 7.09428 362.529 8.07199C361.993 9.04969 361.724 11.0051 361.724 13.9382V89.1155H358.758L324.984 13.9382V75.6614C324.984 79.1046 325.224 81.3151 325.704 82.2928C326.184 83.2705 327.512 83.7594 329.688 83.7594H332.993V87.9678H315.025V83.7594H317.271C319.56 83.7594 320.93 83.1855 321.382 82.0378C321.834 80.89 322.06 77.8506 322.06 72.9196V13.9382C322.06 10.7075 321.848 8.68837 321.424 7.88069C321.029 7.03051 319.842 6.60542 317.865 6.60542H314.771V2.46079H336.171Z" fill="#393939"/>
<path d="M372.403 44.8636C372.403 32.0683 374.917 21.6111 379.946 13.4919C384.975 5.33015 391.006 1.24928 398.041 1.24928C404.567 1.24928 410.401 5.0751 415.542 12.7267C420.712 20.3784 423.297 31.2607 423.297 45.3737C423.297 58.594 420.853 69.2 415.966 77.1917C411.107 85.1409 405.16 89.1155 398.126 89.1155C390.526 89.1155 384.339 84.8859 379.565 76.4266C374.79 67.9673 372.403 57.4463 372.403 44.8636ZM407.491 45.2462C407.491 32.1534 407.321 23.524 406.982 19.3581C406.671 15.1923 405.838 11.834 404.482 9.28349C403.154 6.73295 400.951 5.45768 397.871 5.45768C395.272 5.45768 393.196 6.49915 391.642 8.58209C390.116 10.6225 389.156 13.917 388.76 18.4655C388.393 23.0139 388.209 31.8983 388.209 45.1186C388.209 58.2114 388.365 66.8833 388.676 71.1342C389.015 75.3426 389.876 78.7008 391.261 81.2088C392.673 83.7169 394.877 84.9709 397.871 84.9709C400.357 84.9709 402.377 83.9719 403.931 81.974C405.513 79.9336 406.502 76.6391 406.897 72.0906C407.293 67.5422 407.491 58.594 407.491 45.2462Z" fill="#393939"/>
<path d="M474.657 29.6241L483.345 62.271L495.591 15.7236C495.591 15.6386 495.817 14.7884 496.269 13.1731C496.75 11.5152 496.99 10.0274 496.99 8.70962C496.99 7.30682 496.029 6.60542 494.108 6.60542H491.227V2.46079H506.948V6.60542H505.635C503.346 6.60542 501.948 6.9455 501.439 7.62564C500.931 8.26328 500.14 10.6225 499.066 14.7034L479.276 89.5619H476.48L466.945 53.8542L455.503 89.5619H452.706L430.586 6.60542H424.526V2.46079H487.497V6.60542H486.057C484.22 6.60542 482.977 6.96675 482.328 7.6894C481.678 8.41206 480.83 10.41 479.785 13.6832L474.657 29.6241ZM468.598 6.60542L473.301 24.2679L476.946 12.7267C477.454 11.1539 477.709 9.89987 477.709 8.96467C477.709 7.39184 476.875 6.60542 475.208 6.60542H468.598ZM444.655 6.60542L460.249 64.8853L465.546 48.243L454.359 6.60542H444.655Z" fill="#393939"/>
<path d="M531.06 6.60542V42.7594H532.883C538.787 42.7594 542.206 37.7221 543.138 27.6474H545.892V62.6536H543.138C542.658 52.1964 539.239 46.9678 532.883 46.9678H531.06V83.7594H540.765C549.325 83.7594 554.918 75.8102 557.546 59.9118H560.47L559.283 87.9678H509.957V83.7594H517.161V6.60542H509.957V2.46079H557.546L558.309 26.3084H555.512C553.732 18.2317 551.514 12.9393 548.859 10.4312C546.231 7.88069 542.756 6.60542 538.434 6.60542H531.06Z" fill="#393939"/>
<path d="M594.54 87.9678H565.301V83.7594H572.505V6.60542H565.301V2.46079H595.43C602.408 2.46079 607.395 4.50122 610.389 8.58209C613.412 12.6205 614.924 17.2752 614.924 22.5463C614.924 26.9673 613.765 31.1332 611.449 35.044C609.132 38.9123 605.092 41.4416 599.329 42.6319V42.8869C611.11 45.1824 617 52.3239 617 64.3115C617 71.453 615.107 77.1917 611.322 81.5276C607.536 85.8211 601.942 87.9678 594.54 87.9678ZM586.404 6.60542V40.8465H589.667C593.848 40.8465 596.645 39.975 598.058 38.2322C599.47 36.4893 600.177 31.6007 600.177 23.5665C600.177 16.8501 599.597 12.3441 598.439 10.0487C597.309 7.75317 594.795 6.60542 590.896 6.60542H586.404ZM590.642 44.9911H586.404V83.7594H589.667C594.752 83.7594 598.001 82.5266 599.414 80.0611C600.855 77.5956 601.575 71.8781 601.575 62.9087C601.575 55.7672 600.727 51.0061 599.032 48.6256C597.366 46.2026 594.569 44.9911 590.642 44.9911Z" fill="#393939"/>
<path d="M2.33901 2.59409H49.3769L49.7159 30.5225H47.1309C45.0404 14.6667 40.7038 6.73872 34.1214 6.73872H32.8077V83.8927H41.4101V88.1011H10.3482V83.8927H18.9082V6.73872H17.6369C11.0544 6.73872 6.70379 14.6667 4.58496 30.5225H2L2.33901 2.59409Z" fill="#393939"/>
<path d="M54.2926 44.9969C54.2926 32.2017 56.8069 21.7444 61.8356 13.6252C66.8642 5.46345 72.8958 1.38258 79.9303 1.38258C86.4563 1.38258 92.2901 5.2084 97.4318 12.86C102.602 20.5117 105.187 31.394 105.187 45.507C105.187 58.7273 102.743 69.3333 97.8556 77.325C92.9964 85.2742 87.0496 89.2488 80.0151 89.2488C72.4156 89.2488 66.2286 85.0192 61.4542 76.5599C56.6798 68.1006 54.2926 57.5796 54.2926 44.9969ZM89.3803 45.3795C89.3803 32.2867 89.2108 23.6573 88.8718 19.4914C88.561 15.3256 87.7276 11.9673 86.3716 9.41679C85.0438 6.86625 82.8402 5.59098 79.7608 5.59098C77.1617 5.59098 75.0853 6.63245 73.5315 8.71539C72.0059 10.7558 71.0454 14.0503 70.6499 18.5988C70.2826 23.1472 70.099 32.0316 70.099 45.2519C70.099 58.3447 70.2544 67.0166 70.5651 71.2675C70.9041 75.4759 71.7658 78.8341 73.1501 81.3421C74.5626 83.8502 76.7662 85.1042 79.7608 85.1042C82.2469 85.1042 84.2669 84.1052 85.8207 82.1073C87.4027 80.0669 88.3915 76.7724 88.787 72.2239C89.1825 67.6755 89.3803 58.7273 89.3803 45.3795Z" fill="#393939"/>
<path d="M132.901 2.59409L143.495 52.0746L154.174 2.59409H176.549V6.73872H169.26V83.8927H176.549V88.1011H147.902V83.8927H155.36V11.3297L138.961 88.1011H136.969L120.315 10.3732V75.1571C120.315 78.7278 120.612 81.0871 121.205 82.2348C121.798 83.34 123.437 83.8927 126.121 83.8927H128.112V88.1011H109.128V83.8927H112.603C114.806 83.8927 116.148 83.34 116.628 82.2348C117.109 81.1296 117.349 78.8979 117.349 75.5396V6.73872H109.128V2.59409H132.901Z" fill="#393939"/>
<path d="M212.357 64.1897H194.474L192.058 72.9253C191.126 76.4111 190.66 78.9404 190.66 80.5132C190.66 82.7662 192.073 83.8927 194.898 83.8927H198.034V88.1011H179.727V83.8927H181.38C183.555 83.8927 185.024 83.34 185.787 82.2348C186.55 81.1296 187.482 78.5578 188.584 74.5194L208.458 1H210.958L231.808 83.8927H237.698V88.1011H209.729V83.8927H217.315L212.357 64.1897ZM195.703 59.79H211.213L203.754 30.14L195.703 59.79Z" fill="#393939"/>
<path d="M274.862 2.97667L275.54 25.9316H272.15C270.37 18.365 268.336 13.0938 266.048 10.1182C263.788 7.10005 261.047 5.59098 257.827 5.59098C255.086 5.59098 252.826 6.88751 251.047 9.48056C249.267 12.0736 248.377 15.0705 248.377 18.4712C248.377 22.6796 249.309 25.5702 251.174 27.1431C253.038 28.7159 256.245 30.225 260.793 31.6703C267.771 33.9233 272.447 37.324 274.82 41.8725C277.221 46.3784 278.422 52.1171 278.422 59.0886C278.422 67.2929 276.84 74.3706 273.676 80.3219C270.54 86.2732 266.133 89.2488 260.454 89.2488C256.414 89.2488 252.77 87.3359 249.521 83.5101C247.939 85.3805 246.512 87.2084 245.241 88.9938H242.402V64.0622H245.707C248.193 78.0902 253.024 85.1042 260.2 85.1042C263.985 85.1042 266.895 83.4251 268.929 80.0669C270.963 76.7086 271.98 72.9466 271.98 68.7807C271.98 66.4427 271.528 64.3385 270.624 62.4681C269.749 60.5977 268.717 59.1099 267.531 58.0047C266.344 56.8994 263.067 55.5179 257.7 53.86C252.332 52.2022 248.391 49.099 245.877 44.5505C243.39 40.0021 242.147 34.3271 242.147 27.5257C242.147 20.2141 243.673 14.029 246.724 8.97045C249.803 3.91187 253.631 1.38258 258.208 1.38258C261.683 1.38258 265.144 3.21047 268.59 6.86625C269.692 5.88854 270.879 4.59202 272.15 2.97667H274.862Z" fill="#393939"/>
<path d="M304.653 6.73872V83.8927H312.365V88.1011H283.295V83.8927H290.753V6.73872H283.295V2.59409H312.365V6.73872H304.653Z" fill="#393939"/>
<path d="M336.562 2.59409L359.149 52.8398V16.0482C359.149 12.1799 358.895 9.67185 358.386 8.5241C357.878 7.33385 356.536 6.73872 354.36 6.73872H351.691V2.59409H368.938V6.73872H366.946C364.799 6.73872 363.457 7.22758 362.92 8.20529C362.384 9.18299 362.115 11.1384 362.115 14.0715V89.2488H359.149L325.375 14.0715V75.7947C325.375 79.2379 325.615 81.4484 326.095 82.4261C326.576 83.4038 327.903 83.8927 330.079 83.8927H333.384V88.1011H315.416V83.8927H317.662C319.951 83.8927 321.321 83.3188 321.773 82.1711C322.225 81.0233 322.451 77.9839 322.451 73.0529V14.0715C322.451 10.8408 322.239 8.82167 321.815 8.014C321.42 7.16381 320.233 6.73872 318.256 6.73872H315.162V2.59409H336.562Z" fill="#393939"/>
<path d="M372.794 44.9969C372.794 32.2017 375.308 21.7444 380.337 13.6252C385.366 5.46345 391.397 1.38258 398.432 1.38258C404.958 1.38258 410.792 5.2084 415.933 12.86C421.103 20.5117 423.688 31.394 423.688 45.507C423.688 58.7273 421.245 69.3333 416.357 77.325C411.498 85.2742 405.551 89.2488 398.517 89.2488C390.917 89.2488 384.73 85.0192 379.956 76.5599C375.181 68.1006 372.794 57.5796 372.794 44.9969ZM407.882 45.3795C407.882 32.2867 407.712 23.6573 407.373 19.4914C407.063 15.3256 406.229 11.9673 404.873 9.41679C403.545 6.86625 401.342 5.59098 398.262 5.59098C395.663 5.59098 393.587 6.63245 392.033 8.71539C390.507 10.7558 389.547 14.0503 389.151 18.5988C388.784 23.1472 388.601 32.0316 388.601 45.2519C388.601 58.3447 388.756 67.0166 389.067 71.2675C389.406 75.4759 390.267 78.8341 391.652 81.3421C393.064 83.8502 395.268 85.1042 398.262 85.1042C400.748 85.1042 402.768 84.1052 404.322 82.1073C405.904 80.0669 406.893 76.7724 407.289 72.2239C407.684 67.6755 407.882 58.7273 407.882 45.3795Z" fill="#393939"/>
<path d="M475.049 29.7574L483.736 62.4043L495.983 15.8569C495.983 15.7719 496.209 14.9217 496.661 13.3064C497.141 11.6485 497.381 10.1607 497.381 8.84292C497.381 7.44012 496.42 6.73872 494.499 6.73872H491.618V2.59409H507.339V6.73872H506.026C503.737 6.73872 502.339 7.0788 501.83 7.75894C501.322 8.39658 500.531 10.7558 499.457 14.8367L479.668 89.6952H476.871L467.336 53.9875L455.894 89.6952H453.098L430.977 6.73872H424.917V2.59409H487.889V6.73872H486.448C484.612 6.73872 483.368 7.10005 482.719 7.8227C482.069 8.54536 481.221 10.5433 480.176 13.8165L475.049 29.7574ZM468.989 6.73872L473.693 24.4012L477.337 12.86C477.845 11.2872 478.1 10.0332 478.1 9.09798C478.1 7.52514 477.266 6.73872 475.599 6.73872H468.989ZM445.046 6.73872L460.641 65.0186L465.938 48.3764L454.75 6.73872H445.046Z" fill="#393939"/>
<path d="M531.452 6.73872V42.8927H533.274C539.178 42.8927 542.597 37.8554 543.529 27.7807H546.283V62.7869H543.529C543.049 52.3297 539.63 47.1011 533.274 47.1011H531.452V83.8927H541.156C549.716 83.8927 555.31 75.9435 557.937 60.0451H560.861L559.674 88.1011H510.348V83.8927H517.552V6.73872H510.348V2.59409H557.937L558.7 26.4417H555.903C554.123 18.365 551.905 13.0726 549.25 10.5645C546.622 8.014 543.148 6.73872 538.825 6.73872H531.452Z" fill="#393939"/>
<path d="M594.932 88.1011H565.692V83.8927H572.896V6.73872H565.692V2.59409H595.821C602.799 2.59409 607.786 4.63452 610.78 8.71539C613.803 12.7538 615.315 17.4085 615.315 22.6796C615.315 27.1006 614.156 31.2665 611.84 35.1773C609.523 39.0456 605.483 41.5749 599.72 42.7652V43.0202C611.501 45.3157 617.391 52.4572 617.391 64.4448C617.391 71.5863 615.498 77.325 611.713 81.6609C607.927 85.9544 602.333 88.1011 594.932 88.1011ZM586.795 6.73872V40.9798H590.058C594.239 40.9798 597.036 40.1083 598.449 38.3655C599.861 36.6226 600.568 31.7341 600.568 23.6998C600.568 16.9834 599.989 12.4774 598.83 10.182C597.7 7.88647 595.186 6.73872 591.287 6.73872H586.795ZM591.033 45.1244H586.795V83.8927H590.058C595.143 83.8927 598.392 82.6599 599.805 80.1944C601.246 77.7289 601.966 72.0114 601.966 63.042C601.966 55.9005 601.119 51.1394 599.423 48.7589C597.757 46.3359 594.96 45.1244 591.033 45.1244Z" fill="#393939"/>
<path d="M1.08043 95.1908H50.3147L50.6695 117.673H47.9639C45.7757 104.909 41.2367 98.5271 34.3468 98.5271H32.9718V160.634H41.9759V164.022H9.46356V160.634H18.4233V98.5271H17.0927C10.2028 98.5271 5.64901 104.909 3.43125 117.673H0.725586L1.08043 95.1908Z" fill="#393939"/>
<path d="M93.4315 130.299H73.8265V160.634H81.3669V164.022H51.7376V160.634H59.278V98.5271H51.7376V95.1908H81.3669V98.5271H73.8265V126.706H93.4315V98.5271H85.9798V95.1908H115.52V98.5271H107.98V160.634H115.52V164.022H85.9798V160.634H93.4315V130.299Z" fill="#393939"/>
<path d="M139.032 98.5271V127.63H140.939C147.12 127.63 150.698 123.575 151.673 115.465H154.557V143.645H151.673C151.171 135.227 147.593 131.018 140.939 131.018H139.032V160.634H149.19C158.149 160.634 164.004 154.235 166.754 141.438H169.815L168.573 164.022H116.943V160.634H124.484V98.5271H116.943V95.1908H166.754L167.553 114.388H164.625C162.762 107.886 160.441 103.626 157.661 101.607C154.911 99.5537 151.274 98.5271 146.75 98.5271H139.032Z" fill="#393939"/>
<path d="M211.826 128.913V160.634H219.588V164.022H189.782V160.634H197.322V98.5271H189.782V95.1908H219.588C229.139 95.1908 235.66 96.8846 239.149 100.272C242.638 103.66 244.383 107.287 244.383 111.154C244.383 115.26 242.786 118.768 239.593 121.676C236.399 124.585 231.609 126.501 225.221 127.425V127.63C230.041 129.033 233.634 130.898 236 133.225C238.395 135.518 239.888 138.067 240.48 140.873C241.101 143.679 241.426 147.032 241.455 150.933C241.515 154.8 241.796 157.195 242.298 158.119C242.83 159.043 243.792 159.505 245.181 159.505C246.719 159.505 248.39 158.94 250.193 157.811V161.712C247.296 163.457 244.087 164.33 240.568 164.33C235.955 164.33 232.259 162.995 229.48 160.326C226.7 157.657 225.207 152.815 225 145.8C224.822 138.786 224.039 134.217 222.649 132.096C221.259 129.974 218.716 128.913 215.02 128.913H211.826ZM211.826 98.5271V125.526H217.459C221.363 125.526 224.068 124.705 225.576 123.062C227.084 121.385 227.838 117.587 227.838 111.667C227.838 105.987 227.129 102.377 225.709 100.837C224.29 99.2971 221.821 98.5271 218.302 98.5271H211.826Z" fill="#393939"/>
<path d="M277.254 96.0121V160.634H287.988V164.022H252.104V160.634H263.548V100.632H252.104V97.2953H258.846C261.833 97.2953 265.573 97.0728 270.068 96.628L275.657 96.0121H277.254Z" fill="#393939"/>
<path d="M311.278 95.4988C316.837 95.4988 321.583 98.818 325.516 105.456C329.448 112.061 331.415 120.479 331.415 130.71C331.415 135.74 330.483 141.249 328.621 147.238C326.758 153.192 324.185 157.691 320.903 160.737C317.65 163.782 314.383 165.305 311.1 165.305C305.689 165.305 300.972 161.883 296.951 155.04C292.929 148.162 290.919 139.915 290.919 130.299C290.919 120.786 292.885 112.608 296.818 105.764C300.78 98.9207 305.6 95.4988 311.278 95.4988ZM310.923 161.917C312.697 161.917 314.042 160.754 314.959 158.427C315.905 156.066 316.467 148.504 316.645 135.74L316.911 121.574C316.911 113.874 316.452 108.16 315.536 104.43C314.619 100.7 313.17 98.8351 311.189 98.8351C308.823 98.8351 307.271 101.282 306.532 106.175C305.822 111.068 305.467 119.914 305.467 132.712C305.467 142.533 305.718 149.411 306.221 153.346C306.753 157.281 307.36 159.693 308.04 160.583C308.749 161.473 309.71 161.917 310.923 161.917Z" fill="#393939"/>
<path d="M359.052 96.0121V160.634H369.786V164.022H333.902V160.634H345.346V100.632H333.902V97.2953H340.644C343.631 97.2953 347.372 97.0728 351.866 96.628L357.455 96.0121H359.052Z" fill="#393939"/>
<path d="M391.704 95.1908H440.939L441.293 117.673H438.588C436.4 104.909 431.861 98.5271 424.971 98.5271H423.596V160.634H432.6V164.022H400.087V160.634H409.047V98.5271H407.716C400.827 98.5271 396.273 104.909 394.055 117.673H391.349L391.704 95.1908Z" fill="#393939"/>
<path d="M442.45 129.324C442.45 119.024 445.082 110.606 450.345 104.071C455.609 97.5006 461.922 94.2156 469.285 94.2156C476.116 94.2156 482.222 97.2953 487.604 103.455C493.015 109.614 495.721 118.374 495.721 129.735C495.721 140.377 493.163 148.914 488.047 155.347C482.961 161.746 476.737 164.946 469.374 164.946C461.419 164.946 454.944 161.541 449.946 154.732C444.949 147.922 442.45 139.453 442.45 129.324ZM479.176 129.632C479.176 119.093 478.999 112.146 478.644 108.793C478.319 105.439 477.446 102.736 476.027 100.683C474.637 98.6298 472.331 97.6032 469.108 97.6032C466.387 97.6032 464.214 98.4416 462.587 100.118C460.991 101.761 459.985 104.413 459.571 108.074C459.187 111.736 458.995 118.887 458.995 129.529C458.995 140.069 459.157 147.049 459.483 150.471C459.837 153.859 460.739 156.562 462.188 158.581C463.667 160.6 465.973 161.61 469.108 161.61C471.71 161.61 473.824 160.805 475.45 159.197C477.106 157.555 478.141 154.903 478.555 151.241C478.969 147.58 479.176 140.377 479.176 129.632Z" fill="#393939"/>
<path d="M518.833 98.5271V142.977C518.833 150.095 519.957 154.868 522.204 157.298C524.452 159.693 527.497 160.891 531.342 160.891C534.239 160.891 536.856 160.258 539.192 158.992C541.528 157.726 543.362 155.827 544.692 153.294C546.023 150.728 546.688 146.382 546.688 140.257V103.917C546.688 101.556 546.555 100.067 546.289 99.4511C546.023 98.8351 544.766 98.5271 542.519 98.5271H538.438V95.1908H557.422V98.5271H554.628C552.41 98.5271 551.05 98.8351 550.547 99.4511C550.045 100.033 549.793 101.658 549.793 104.327V139.949C549.793 144.466 549.409 148.435 548.64 151.857C547.901 155.245 545.905 158.273 542.652 160.942C539.429 163.611 534.446 164.946 527.704 164.946C524.156 164.946 520.696 164.484 517.325 163.56C513.984 162.602 511.249 160.925 509.12 158.53C506.991 156.135 505.645 153.688 505.083 151.19C504.551 148.658 504.285 145.715 504.285 142.361V98.5271H496.478V95.1908H526.995V98.5271H518.833Z" fill="#393939"/>
<path d="M578.228 128.913V160.634H585.991V164.022H556.184V160.634H563.724V98.5271H556.184V95.1908H585.991C595.542 95.1908 602.062 96.8846 605.551 100.272C609.041 103.66 610.785 107.287 610.785 111.154C610.785 115.26 609.188 118.768 605.995 121.676C602.801 124.585 598.011 126.501 591.624 127.425V127.63C596.444 129.033 600.036 130.898 602.402 133.225C604.797 135.518 606.291 138.067 606.882 140.873C607.503 143.679 607.828 147.032 607.858 150.933C607.917 154.8 608.198 157.195 608.701 158.119C609.233 159.043 610.194 159.505 611.584 159.505C613.121 159.505 614.792 158.94 616.596 157.811V161.712C613.698 163.457 610.49 164.33 606.971 164.33C602.358 164.33 598.661 162.995 595.882 160.326C593.102 157.657 591.609 152.815 591.402 145.8C591.225 138.786 590.441 134.217 589.051 132.096C587.661 129.974 585.118 128.913 581.422 128.913H578.228ZM578.228 98.5271V125.526H583.862C587.765 125.526 590.471 124.705 591.979 123.062C593.487 121.385 594.241 117.587 594.241 111.667C594.241 105.987 593.531 102.377 592.112 100.837C590.692 99.2971 588.223 98.5271 584.704 98.5271H578.228Z" fill="#393939"/>
</svg>
