<?xml version="1.0" encoding="utf-8"?>
<!-- Generator: Adobe Illustrator 24.3.0, SVG Export Plug-In . SVG Version: 6.00 Build 0)  -->
<svg version="1.1" id="Layer_1" xmlns="http://www.w3.org/2000/svg" xmlns:xlink="http://www.w3.org/1999/xlink" x="0px" y="0px"
	 viewBox="0 0 100 100" style="enable-background:new 0 0 100 100;" xml:space="preserve">
<style type="text/css">
	.st0{fill:#151F28;}
</style>
<path class="st0" d="M17.4,66.3c0-1.8,0-3.6,0-5.4c0-0.3,0.1-0.5,0.1-0.8c0.2-2,0.4-4,0.7-6c1.4-7.9,4.5-15,8.9-21.7
	c0.2-0.2,0.4-0.4,0.7-0.6c4-1.8,8.2-3.1,12.6-3.9c0.4-0.1,0.6,0,0.7,0.3c0.4,0.8,0.9,1.7,1.2,2.5c0.2,0.5,0.5,0.6,1,0.5
	c1.9-0.2,3.9-0.5,5.8-0.4c2.6,0,5.2,0.3,7.8,0.5c0.4,0,0.7,0,0.9-0.5c0.4-0.9,0.8-1.7,1.2-2.6c0.2-0.3,0.4-0.4,0.7-0.3
	c4.3,0.8,8.4,2.1,12.4,3.8c0.3,0.2,0.7,0.4,0.9,0.7c7.4,11,10.6,23.1,9.4,36.3c0,0.2-0.2,0.5-0.4,0.7c-4.8,3.5-10,6.2-15.7,8
	c-0.4,0.1-0.6,0-0.8-0.3c-0.8-1.2-1.6-2.5-2.3-3.7c-0.3-0.5-0.5-1-0.8-1.5c1.8-0.9,3.6-1.7,5.4-2.6c-0.8-1.1-1.2-1.2-2.2-0.8
	c-7.2,3.1-14.7,4.1-22.5,2.7c-3.1-0.6-6.1-1.5-9-2.8c-0.3-0.1-0.6-0.2-0.8-0.1c-0.4,0.2-0.7,0.5-1.3,1c2,0.9,3.7,1.8,5.7,2.7
	c-1.1,1.8-2.3,3.6-3.4,5.3c-0.2,0.4-0.5,0.2-0.8,0.1c-5.6-1.8-10.8-4.4-15.5-7.9c-0.2-0.2-0.4-0.5-0.4-0.8
	C17.5,68,17.5,67.2,17.4,66.3z M66.8,55.2c-0.2-0.8-0.3-1.6-0.5-2.4c-1.4-4.1-6.2-5.4-9.2-2.6c-2.8,2.6-2.8,7.4,0,10
	c2.2,2.2,5.6,2.1,7.8-0.1C66.1,58.8,66.7,57.1,66.8,55.2z M45.2,55.2c-0.3-1-0.4-2-0.8-3c-1.7-3.9-6.5-4.7-9.3-1.6
	c-2.5,2.7-2.3,7.2,0.3,9.7c2.2,2.1,5.5,2.1,7.7-0.1C44.4,58.8,45,57.2,45.2,55.2z"/>
</svg>
